<?xml version="1.0" standalone="no"?>
<!DOCTYPE svg PUBLIC "-//W3C//DTD SVG 20010904//EN"
 "http://www.w3.org/TR/2001/REC-SVG-20010904/DTD/svg10.dtd">
<svg version="1.0" xmlns="http://www.w3.org/2000/svg"
 width="768.000000pt" height="768.000000pt" viewBox="0 0 768.000000 768.000000"
 preserveAspectRatio="xMidYMid meet">
<metadata>
Created by potrace 1.11, written by Peter Selinger 2001-2013
</metadata>
<g transform="translate(0.000000,768.000000) scale(0.100000,-0.100000)"
fill="#000000" stroke="none">
<path d="M3570 7465 c-162 -33 -229 -74 -415 -255 -82 -81 -185 -170 -227
-199 -75 -49 -78 -53 -78 -90 0 -47 19 -65 67 -63 63 3 139 59 308 228 178
179 227 211 365 240 97 20 240 14 331 -15 251 -80 437 -360 399 -603 -26 -167
-94 -275 -310 -488 -158 -155 -189 -196 -221 -295 -9 -28 -14 -155 -18 -429
l-6 -390 -79 -13 c-170 -29 -369 -115 -517 -225 -97 -72 -247 -230 -329 -346
-36 -51 -106 -159 -156 -240 -229 -368 -270 -419 -423 -522 -296 -198 -1019
-579 -1541 -810 -326 -144 -368 -168 -476 -275 -134 -132 -204 -265 -235 -442
-15 -85 -7 -265 14 -315 26 -62 57 -55 281 60 105 54 253 133 328 175 75 43
139 77 142 77 3 0 7 -211 8 -468 l3 -469 30 -49 c60 -95 194 -134 472 -134
162 0 152 5 173 -94 19 -92 15 -165 -15 -267 -20 -67 -36 -101 -56 -120 -37
-34 -43 -76 -36 -243 9 -202 -23 -186 372 -186 l314 0 28 24 28 24 0 166 c-1
153 -2 168 -22 195 -31 41 -53 176 -60 360 -6 144 -5 154 11 148 10 -4 837 -7
1838 -7 l1821 0 -6 -132 c-6 -146 -22 -234 -63 -348 -25 -72 -26 -80 -21 -224
7 -165 15 -189 68 -200 17 -3 154 -6 304 -6 280 0 326 5 345 40 6 10 10 96 10
189 l0 171 -35 53 c-49 75 -79 193 -72 282 4 38 12 93 19 120 l13 50 200 6
c245 8 334 26 393 82 70 65 76 118 73 615 -1 232 1 422 5 422 4 0 135 -70 292
-156 305 -169 391 -209 423 -199 36 12 49 64 49 195 0 259 -76 449 -246 611
-113 108 -224 169 -671 370 -556 249 -1174 586 -1401 763 -95 75 -152 150
-355 461 -192 295 -296 429 -415 530 -191 164 -360 245 -613 295 l-56 11 -7
46 c-9 69 -7 516 4 618 5 50 14 107 20 127 18 63 86 150 181 233 173 150 289
322 324 481 25 110 17 274 -18 372 -38 109 -83 178 -172 267 -85 84 -154 131
-255 172 -126 50 -294 65 -430 38z m1656 -4321 c759 -410 1411 -762 1449 -781
39 -19 82 -47 98 -61 l27 -26 0 -445 c0 -291 -4 -460 -11 -485 -14 -50 -54
-91 -105 -106 -42 -13 -378 -26 -417 -16 -19 4 -29 20 -47 73 -20 58 -24 96
-29 268 -7 218 -11 233 -72 294 -61 61 -141 83 -225 62 -84 -21 -119 -55 -177
-170 -48 -97 -52 -110 -56 -188 -2 -47 2 -135 8 -197 7 -61 9 -119 5 -129 -6
-16 -117 -17 -1824 -17 -1640 0 -1819 2 -1831 16 -10 13 -10 46 0 188 14 192
12 207 -43 328 -56 122 -127 172 -241 172 -83 0 -132 -21 -187 -82 -56 -62
-62 -92 -54 -282 7 -154 6 -171 -14 -231 -12 -35 -28 -75 -37 -88 l-15 -23
-196 4 c-232 6 -291 20 -329 77 l-23 34 0 478 0 479 23 14 c26 17 1690 922
2102 1144 222 119 835 441 841 442 1 0 622 -336 1380 -746z"/>
</g>
</svg>
