<?xml version="1.0" standalone="no"?>
<!DOCTYPE svg PUBLIC "-//W3C//DTD SVG 20010904//EN"
 "http://www.w3.org/TR/2001/REC-SVG-20010904/DTD/svg10.dtd">
<svg version="1.0" xmlns="http://www.w3.org/2000/svg"
 width="768.000000pt" height="768.000000pt" viewBox="0 0 768.000000 768.000000"
 preserveAspectRatio="xMidYMid meet">
<metadata>
Created by potrace 1.11, written by Peter Selinger 2001-2013
</metadata>
<g transform="translate(0.000000,768.000000) scale(0.100000,-0.100000)"
fill="#000000" stroke="none">
<path d="M3677 7474 c-1 -1 -27 -4 -57 -7 -106 -11 -233 -62 -320 -129 -14
-10 -86 -79 -160 -152 -74 -73 -168 -154 -208 -180 -75 -50 -93 -77 -73 -115
14 -24 50 -36 83 -26 56 18 163 104 278 225 134 142 195 188 286 218 294 99
592 -3 741 -254 64 -107 78 -161 77 -289 0 -97 -4 -118 -28 -180 -55 -135
-112 -207 -329 -413 -90 -85 -132 -143 -158 -217 -30 -86 -31 -105 -30 -470 0
-192 -2 -357 -5 -367 -3 -11 -25 -20 -69 -27 -325 -57 -593 -226 -819 -517
-47 -61 -256 -378 -256 -389 0 -8 -103 -169 -143 -223 -76 -105 -165 -178
-352 -289 -192 -115 -301 -176 -580 -325 -132 -71 -576 -290 -680 -336 -461
-203 -535 -243 -641 -352 -157 -162 -236 -365 -228 -587 5 -117 22 -175 56
-187 23 -8 50 3 195 76 203 103 264 136 407 217 63 36 111 58 115 53 3 -6 6
-208 5 -449 -1 -494 0 -507 68 -575 65 -65 182 -90 425 -90 70 0 135 -2 144
-4 18 -5 35 -39 44 -89 13 -68 16 -163 7 -200 -33 -131 -51 -179 -77 -199 -32
-26 -42 -67 -39 -171 4 -178 6 -197 29 -223 l21 -25 307 -1 c169 -1 316 2 326
6 46 16 54 50 53 205 -1 129 -3 149 -23 181 -38 65 -61 221 -63 427 l-1 90
1833 1 c1681 1 1833 0 1840 -15 9 -17 8 -110 -2 -231 -5 -68 -33 -180 -70
-285 -14 -40 -15 -192 0 -298 10 -80 11 -80 333 -80 152 0 294 3 314 7 59 11
65 35 64 221 l-2 160 -33 50 c-35 53 -71 160 -76 225 -2 34 6 117 18 175 3 11
5 25 5 32 2 34 27 39 192 41 218 1 286 10 359 47 73 37 97 72 118 170 3 17 6
229 6 472 l0 443 55 -32 c56 -31 81 -45 196 -108 33 -18 74 -41 90 -50 255
-142 334 -180 374 -180 38 0 55 47 58 162 6 212 -45 383 -160 538 -120 160
-260 245 -802 486 -394 175 -850 416 -1216 643 -206 127 -249 178 -584 696
-181 279 -370 463 -597 578 -100 51 -189 81 -313 105 l-90 18 0 365 c0 200 3
375 7 389 24 96 68 165 152 240 269 238 377 421 380 640 1 154 -14 221 -77
345 -31 59 -63 102 -127 166 -47 47 -98 93 -115 102 -147 79 -257 113 -383
120 -40 2 -73 3 -75 1z m302 -3648 c64 -34 161 -87 216 -116 55 -29 105 -56
110 -60 6 -4 49 -28 98 -54 187 -99 264 -141 310 -168 26 -15 50 -28 52 -28 2
0 102 -53 222 -119 120 -65 247 -134 283 -153 57 -31 287 -155 520 -281 41
-22 89 -48 106 -58 18 -10 76 -41 130 -70 55 -29 104 -55 109 -59 6 -4 55 -31
110 -60 55 -29 114 -60 130 -70 56 -33 210 -113 296 -156 47 -23 97 -56 110
-72 l25 -29 -1 -459 c-1 -436 -2 -461 -20 -499 -25 -49 -85 -82 -170 -92 -75
-8 -336 -9 -358 0 -9 3 -23 21 -30 39 -30 72 -40 146 -41 317 l-2 176 -29 46
c-83 130 -222 159 -345 74 -30 -21 -50 -50 -91 -133 -51 -106 -52 -108 -53
-202 0 -77 4 -148 17 -290 0 -3 -3 -12 -7 -20 -5 -13 -218 -15 -1827 -14
-1636 0 -1823 2 -1833 16 -12 16 -12 62 -2 194 14 175 12 194 -35 300 -46 105
-80 146 -146 176 -97 43 -207 17 -282 -68 -50 -57 -66 -123 -56 -233 16 -176
15 -203 -14 -287 -18 -51 -35 -83 -48 -89 -22 -11 -280 -12 -379 -1 -77 9
-145 42 -164 81 -12 25 -14 110 -15 504 0 307 3 478 10 487 9 11 221 130 475
266 47 25 132 71 190 103 58 31 238 129 400 217 162 89 318 173 345 188 28 15
75 41 105 58 30 16 78 42 105 57 81 44 165 90 240 130 39 21 122 65 185 100
63 34 156 84 205 110 50 26 122 65 160 85 39 21 138 73 220 115 83 43 186 98
230 121 44 24 88 43 99 43 10 1 71 -28 135 -63z"/>
</g>
</svg>
